<svg width="77" height="76" viewBox="0 0 77 76" fill="none" xmlns="http://www.w3.org/2000/svg">
<rect x="0.158203" width="76" height="76" rx="38" fill="#FA706C"/>
<path d="M34.8167 28.6709H37.3862C38.8052 28.6709 40.5444 29.6591 41.2709 30.8782L44.4511 36.2153H50.2334C50.943 36.2153 51.5181 36.7905 51.5181 37.5C51.5181 38.2096 50.943 38.7847 50.2334 38.7847H44.3289L41.1486 44.1219C40.4222 45.3409 38.683 46.3291 37.2639 46.3291H34.6945L39.1901 38.7847H30.2112L28.3683 41.936H25.7988L28.3931 37.5V37.4576L25.8236 33.064H28.3931L30.236 36.2153H39.3122L34.8167 28.6709Z" fill="#2D2D2D"/>
<mask id="mask0_173_2784" style="mask-type:alpha" maskUnits="userSpaceOnUse" x="25" y="28" width="27" height="19">
<path d="M34.8167 28.6709H37.3862C38.8052 28.6709 40.5444 29.6591 41.2709 30.8782L44.4511 36.2153H50.2334C50.943 36.2153 51.5181 36.7905 51.5181 37.5C51.5181 38.2096 50.943 38.7847 50.2334 38.7847H44.3289L41.1486 44.1219C40.4222 45.3409 38.683 46.3291 37.2639 46.3291H34.6945L39.1901 38.7847H30.2112L28.3683 41.936H25.7988L28.3931 37.5V37.4576L25.8236 33.064H28.3931L30.236 36.2153H39.3122L34.8167 28.6709Z" fill="white"/>
</mask>
<g mask="url(#mask0_173_2784)">
</g>
</svg>
