<svg width="77" height="76" viewBox="0 0 77 76" fill="none" xmlns="http://www.w3.org/2000/svg">
<rect x="0.103516" width="76" height="76" rx="38" fill="#70CE88"/>
<path fill-rule="evenodd" clip-rule="evenodd" d="M43.2287 22.0834H30.2953C28.9236 22.0834 27.8115 23.2608 27.8115 24.7133V48.3824C27.8115 49.8348 28.9236 51.0123 30.2953 51.0123H47.6819C49.0537 51.0123 50.1657 49.8348 50.1657 48.3824V29.4284L43.2287 22.0834ZM30.2953 24.7133H40.2305V29.9731C40.2305 31.4255 41.3425 32.603 42.7143 32.603H47.6819V48.3824H30.2953V24.7133ZM42.7143 29.9731V25.2579L47.1675 29.9731H42.7143ZM43.078 35.618L37.7467 41.263L34.8992 38.2479L33.1429 40.1075L37.7467 44.9822L44.8344 37.4776L43.078 35.618Z" fill="#262626"/>
</svg>
