<svg width="76" height="76" viewBox="0 0 76 76" fill="none" xmlns="http://www.w3.org/2000/svg">
<rect width="76" height="76" rx="38" fill="#717CFF"/>
<path d="M48.2035 27.7559C47.6496 28.3098 47.6035 29.1714 48.0958 29.7868C50.3268 32.5871 51.4962 36.4182 50.4499 40.434C49.2344 45.1268 45.5571 48.6348 40.8952 49.5733C33.0482 51.1273 26.1707 45.0652 26.1707 37.4799C26.1707 31.2024 30.8634 26.0326 36.9409 25.2787V28.3867C32.1251 29.2022 28.5863 33.7103 29.3556 38.8954C29.9556 42.9112 33.2944 46.1422 37.3256 46.6346C42.9261 47.327 47.7112 42.9573 47.7112 37.4799C47.7112 35.5566 47.1265 33.7872 46.1264 32.3101C45.6033 31.5408 44.4801 31.4947 43.8185 32.1409L43.8031 32.1563C43.28 32.6794 43.2338 33.4949 43.6339 34.1103C44.557 35.5258 44.9263 37.3414 44.3878 39.2185C43.7877 41.3264 42.0183 43.0035 39.8643 43.4805C35.8639 44.3575 32.3251 41.3418 32.3251 37.4799C32.3251 34.6181 34.2945 32.2332 36.9409 31.5408V34.8335C36.0178 35.372 35.4023 36.3413 35.4023 37.4799C35.4023 39.1723 36.7871 40.5571 38.4795 40.5571C40.172 40.5571 41.5568 39.1723 41.5568 37.4799C41.5568 36.3413 40.9413 35.3566 40.0181 34.8335V23.1862C40.0181 22.5861 39.5258 22.0938 38.9257 22.0938C30.6788 21.7861 23.5704 28.3405 23.1242 36.5567C22.5703 46.6346 31.4481 54.7431 41.6029 52.5582C47.5727 51.2812 52.1885 46.7115 53.5271 40.7571C54.6195 35.8951 53.2194 31.2793 50.4961 27.879C49.9268 27.1558 48.8498 27.1096 48.2035 27.7559Z" fill="#37474F"/>
<mask id="mask0_103_3274" style="mask-type:alpha" maskUnits="userSpaceOnUse" x="23" y="22" width="31" height="31">
<path d="M48.2035 27.7559C47.6496 28.3098 47.6035 29.1714 48.0958 29.7868C50.3268 32.5871 51.4962 36.4182 50.4499 40.434C49.2344 45.1268 45.5571 48.6348 40.8952 49.5733C33.0482 51.1273 26.1707 45.0652 26.1707 37.4799C26.1707 31.2024 30.8634 26.0326 36.9409 25.2787V28.3867C32.1251 29.2022 28.5863 33.7103 29.3556 38.8954C29.9556 42.9112 33.2944 46.1422 37.3256 46.6346C42.9261 47.327 47.7112 42.9573 47.7112 37.4799C47.7112 35.5566 47.1265 33.7872 46.1264 32.3101C45.6033 31.5408 44.4801 31.4947 43.8185 32.1409L43.8031 32.1563C43.28 32.6794 43.2338 33.4949 43.6339 34.1103C44.557 35.5258 44.9263 37.3414 44.3878 39.2185C43.7877 41.3264 42.0183 43.0035 39.8643 43.4805C35.8639 44.3575 32.3251 41.3418 32.3251 37.4799C32.3251 34.6181 34.2945 32.2332 36.9409 31.5408V34.8335C36.0178 35.372 35.4023 36.3413 35.4023 37.4799C35.4023 39.1723 36.7871 40.5571 38.4795 40.5571C40.172 40.5571 41.5568 39.1723 41.5568 37.4799C41.5568 36.3413 40.9413 35.3566 40.0181 34.8335V23.1862C40.0181 22.5861 39.5258 22.0938 38.9257 22.0938C30.6788 21.7861 23.5704 28.3405 23.1242 36.5567C22.5703 46.6346 31.4481 54.7431 41.6029 52.5582C47.5727 51.2812 52.1885 46.7115 53.5271 40.7571C54.6195 35.8951 53.2194 31.2793 50.4961 27.879C49.9268 27.1558 48.8498 27.1096 48.2035 27.7559Z" fill="white"/>
</mask>
<g mask="url(#mask0_103_3274)">
</g>
</svg>
