<svg width="76" height="76" viewBox="0 0 76 76" fill="none" xmlns="http://www.w3.org/2000/svg">
<rect width="76" height="76" rx="11" fill="#FA706C"/>
<rect opacity="0.136765" width="76" height="76" rx="11" fill="black"/>
<path d="M36.333 24.6666H24.6663C23.7823 24.6666 22.9344 25.0178 22.3093 25.6429C21.6842 26.2681 21.333 27.1159 21.333 28V51.3333C21.333 52.2174 21.6842 53.0652 22.3093 53.6903C22.9344 54.3154 23.7823 54.6666 24.6663 54.6666H47.9997C48.8837 54.6666 49.7316 54.3154 50.3567 53.6903C50.9818 53.0652 51.333 52.2174 51.333 51.3333V39.6666M48.833 22.1666C49.496 21.5036 50.3953 21.1311 51.333 21.1311C52.2707 21.1311 53.17 21.5036 53.833 22.1666C54.496 22.8297 54.8685 23.729 54.8685 24.6666C54.8685 25.6043 54.496 26.5036 53.833 27.1666L37.9997 43L31.333 44.6666L32.9997 38L48.833 22.1666Z" stroke="white" stroke-width="2" stroke-linecap="round" stroke-linejoin="round"/>
</svg>
