<svg width="76" height="76" viewBox="0 0 76 76" fill="none" xmlns="http://www.w3.org/2000/svg">
<rect width="76" height="76" rx="11" fill="#CE70AE"/>
<rect opacity="0.136765" width="76" height="76" rx="11" fill="black"/>
<path d="M46.3337 53V49.6667C46.3337 47.8986 45.6313 46.2029 44.381 44.9526C43.1308 43.7024 41.4351 43 39.667 43H26.3337C24.5655 43 22.8699 43.7024 21.6196 44.9526C20.3694 46.2029 19.667 47.8986 19.667 49.6667V53M56.3337 53V49.6667C56.3326 48.1895 55.8409 46.7546 54.9359 45.5872C54.0309 44.4198 52.7639 43.5859 51.3337 43.2167M44.667 23.2167C46.101 23.5838 47.3721 24.4178 48.2797 25.5872C49.1874 26.7565 49.6801 28.1947 49.6801 29.675C49.6801 31.1553 49.1874 32.5935 48.2797 33.7628C47.3721 34.9322 46.101 35.7662 44.667 36.1333M39.667 29.6667C39.667 33.3486 36.6822 36.3333 33.0003 36.3333C29.3184 36.3333 26.3337 33.3486 26.3337 29.6667C26.3337 25.9848 29.3184 23 33.0003 23C36.6822 23 39.667 25.9848 39.667 29.6667Z" stroke="white" stroke-width="2" stroke-linecap="round" stroke-linejoin="round"/>
</svg>
